{"title":"Minions.2015.HD-TS.READNFO.XVID.AC3-VAiN","uid":12154406,"size":1495722007,"categoryP":"video","categoryS":"movies","magnet":"?xt=urn:btih:558f1905de316160fabd2bc9bf23d6559c846b73&amp;dn=Minions.2015.HD-TS.READNFO.XVID.AC3-VAiN&amp;tr=udp%3A%2F%2Ftracker.openbittorrent.com%3A80&amp;tr=udp%3A%2F%2Fopen.demonii.com%3A1337&amp;tr=udp%3A%2F%2Ftracker.coppersurfer.tk%3A6969&amp;tr=udp%3A%2F%2Fexodus.desync.com%3A6969","seeders":0,"leechers":1,"uploader":"TvTeam","files":4,"time":1437735433,"description":"------------------------------------------------------------------------\n\n &lt;a href=&quot; https://www.torrenting.com&quot; rel=&quot;nofollow&quot; target=&quot;_NEW&quot;&gt; https://www.torrenting.com&lt;/a&gt;\n\nSign up is OPEN - for time being. Come and have fun\n\n.......................................................................................................................[img]http://i.imgur.com/FJi0aRt.png[/img] \n\n[b]P R E S E N T S . . . .[/b] \n\nMinions.2015.HD-TS.READNFO.XVID.AC3-VAiN\n\niMDB........: http://www.imdb.com/title/tt2293640/\n\nPLOT........: Minions Stuart, Kevin and Bob are recruited by Scarlet Overkill, a super-villain who, alongside her inventor husband Herb, hatches a plot to take over the world.\n\n\nT E C H N i C A L . i N F O . . .\n\nBasic Information\nFormat                                   : AVI\nFormat/Info                              : Audio Video Interleave\nFile size                                : 1.37 GiB\nDuration                                 : 1h 23mn\nOverall bit rate                         : 2 339 Kbps\nWriting application                      : VirtualDubMod 1.5.10.2 (build 2540/release)\nWriting library                          : VirtualDubMod build 2540/release\n\nVideo\nID                                       : 0\nFormat                                   : MPEG-4 Visual\nFormat profile                           : Advanced Simple@L5\nFormat settings, BVOP                    : 2\nFormat settings, QPel                    : No\nFormat settings, GMC                     : No warppoints\nFormat settings, Matrix                  : Default (MPEG)\nMuxing mode                              : Packed bitstream\nCodec ID                                 : XVID\nCodec ID/Hint                            : XviD\nDuration                                 : 1h 23mn\nBit rate                                 : 2 071 Kbps\nWidth                                    : 680 pixels\nHeight                                   : 336 pixels\nDisplay aspect ratio                     : 2.024\nFrame rate                               : 29.970 fps\nColor space                              : YUV\nChroma subsampling                       : 4:2:0\nBit depth                                : 8 bits\nScan type                                : Progressive\nCompression mode                         : Lossy\nBits/(Pixel*Frame)                       : 0.302\nStream size                              : 1.21 GiB (89%)\nWriting library                          : XviD 66\n\nAudio\nID                                       : 1\nFormat                                   : AC-3\nFormat/Info                              : Audio Coding 3\nMode extension                           : CM (complete main)\nFormat settings, Endianness              : Big\nCodec ID                                 : 2000\nDuration                                 : 1h 23mn\nBit rate mode                            : Constant\nBit rate                                 : 256 Kbps\nChannel(s)                               : 2 channels\nChannel positions                        : Front: L R\nSampling rate                            : 48.0 KHz\nBit depth                                : 16 bits\nCompression mode                         : Lossy\nStream size                              : 154 MiB (11%)\nAlignment                                : Split accross interleaves\nInterleave, duration                     : 33 ms (1.00 video frame)\nInterleave, preload duration             : 500 ms\n\n\n\nE N C O D E R S . N O T E S . . .       \n\nSOURCE......: ViDEO...EVE, HiVE CM8 HD Video\n............: AUDiO...HiVE-CM8 release\nSAMPLE......: Yippers \nADDED NOTE..: well had both cams handy. not alota time so started to work. BOOM!!! Then it's dropped and all the work dun by EVE &amp; Hive. so grabbed Hive's flipped through and thought, has too much red in it for me liking so decided to work on this (as all the work been done already) adjusted rgb, lvls, sharp, noise, gain and a few other tidbits. \n\n*READNFO* begin audio is pretty loud and abbresive but damn gud with that exception. Cheers to Hive for the lipsync and S4NDM4N for the cap... also in via the screens you can see 2 screen caps the show the difference in vids used. still pretty damn nice copy... cheers to all involved. \n\n\n\nS C R E E N . S H O T S . . .\n\n[img]http://i.imgur.com/hmdqIOq.png[/img]\n\n[img]http://i.imgur.com/vcV4Ojq.png[/img]\n\n[img]http://i.imgur.com/7hsL9KC.png[/img]\n\n[img]http://i.imgur.com/EB3JOx9.png[/img]\n\n[img]http://i.imgur.com/Dd1u5eI.png[/img]\n\n[img]http://i.imgur.com/MCJ0BCD.png[/img]\n\n[img]http://i.imgur.com/IoJJ0YB.png[/img]\n\n[img]http://i.imgur.com/4gGPAv4.png[/img]\n\n[img]http://i.imgur.com/xQS9NmR.png[/img]\n\n[img]http://i.imgur.com/eohv4ai.png[/img]\n\n\n\n\n\ngot any funny stories, jokes, nakid pix of ya sisters/gf's or just want to reach out to us giz us some treats send to... &lt;a class=&quot;__cf_email__&quot; href=&quot;/cdn-cgi/l/email-protection&quot; data-cfemail=&quot;6b3d2a02252b031e1803060a020745060e&quot;&gt;[email&amp;#160;protected]&lt;/a&gt;&lt;script data-cfhash='f9e31' type=&quot;text/javascript&quot;&gt;\n/* &lt;![CDATA[ */!function(){try{var t=&quot;currentScript&quot;in document?document.currentScript:function(){for(var t=document.getElementsByTagName(&quot;script&quot;),e=t.length;e--;)if(t[e].getAttribute(&quot;data-cfhash&quot;))return t[e]}();if(t&amp;&amp;t.previousSibling){var e,r,n,i,c=t.previousSibling,a=c.getAttribute(&quot;data-cfemail&quot;);if(a){for(e=&quot;&quot;,r=parseInt(a.substr(0,2),16),n=2;a.length-n;n+=2)i=parseInt(a.substr(n,2),16)^r,e+=String.fromCharCode(i);e=document.createTextNode(e),c.parentNode.replaceChild(e,c)}t.parentNode.removeChild(t);}}catch(u){}}()/* ]]&gt; */&lt;/script&gt; ;) \n\n***DISCLAiMER*** as you can see there were no special friend that passed us some special vobs. what you see here is work put into a source. sum may like others may just hate...VAiN stands behind it's QUALiTY and don't claim to be professional HDTSCAMBDBRiPDVDRiPSCRHQ ENCODERS. just a cpl of fella's nipping at ya mums knickers..... \n\n\nGREETZ:\n\nHive-CM8 | Rx | REFiLL | JEDI | DREAMER n' LADY | 26k |Unevano | EsX | TOFFEE\nGH0ST | ViSiON | Sugarb | DeviAntsRUs | STARLETS | GUSH | spangy | jamie111 | TED |\n\nAnd all the release grps that don't hide behind new names, or live in the past n glory of old has been that neva were release grps\n\nCheer's to our wives n girlfriends... may they neva meet :shifty","torrent":{"xt":"urn:btih:558f1905de316160fabd2bc9bf23d6559c846b73","amp;dn":"Minions.2015.HD-TS.READNFO.XVID.AC3-VAiN","amp;tr":["udp%3A%2F%2Ftracker.openbittorrent.com%3A80","udp%3A%2F%2Fopen.demonii.com%3A1337","udp%3A%2F%2Ftracker.coppersurfer.tk%3A6969","udp%3A%2F%2Fexodus.desync.com%3A6969"],"infoHash":"558f1905de316160fabd2bc9bf23d6559c846b73","infoHashBuffer":{"type":"Buffer","data":[85,143,25,5,222,49,97,96,250,189,43,201,191,35,214,85,156,132,107,115]},"announce":[],"urlList":[]}}